<svg width="384" height="169" viewBox="0 0 384 169" fill="none" xmlns="http://www.w3.org/2000/svg">
<path d="M122.744 43.8917C126.846 36.717 131.544 29.8806 136.699 23.3627C139.301 20.1186 142.063 17.0039 145.023 14.0485C147.992 11.103 151.171 8.31665 154.717 5.92839C156.485 4.74422 158.352 3.6496 160.348 2.754C162.335 1.84846 164.46 1.13198 166.705 0.77374C168.94 0.385648 171.294 0.40555 173.598 0.863299C174.731 1.13198 175.883 1.45041 176.936 1.91811C178.038 2.35596 179.26 3.10229 180.174 3.94813C182.061 5.68957 183.253 7.8191 184.137 9.91877C185.001 12.0384 185.587 14.1878 186.014 16.3273C186.858 20.6162 187.156 24.8852 187.236 29.1243C187.375 37.6126 186.57 45.9815 185.477 54.2807C184.345 62.5798 182.826 70.7994 181.028 78.9494C179.24 87.1092 177.144 95.1895 174.721 103.2C172.307 111.201 169.625 119.142 166.556 126.963C163.467 134.785 160.06 142.527 155.74 150.02C153.545 153.762 151.181 157.463 148.062 160.956C146.493 162.698 144.734 164.409 142.45 165.912C141.308 166.658 140.007 167.345 138.477 167.852C136.967 168.36 135.17 168.628 133.332 168.439C132.855 168.4 132.488 168.32 132.061 168.25C131.644 168.171 131.216 168.051 130.799 167.932C129.945 167.653 129.091 167.305 128.276 166.797C126.618 165.832 125.267 164.369 124.363 162.887C123.449 161.394 122.943 159.891 122.595 158.498C122.257 157.095 122.108 155.762 122.039 154.478C121.91 151.921 122.118 149.562 122.436 147.283C122.764 145.005 123.221 142.815 123.757 140.676C125.932 132.128 129.131 124.217 132.676 116.495C139.818 101.1 148.638 86.6913 158.749 73.118C163.835 66.3513 169.278 59.8134 175.317 53.6935C178.336 50.6386 181.505 47.6831 184.901 44.9167C188.298 42.1503 191.914 39.5431 195.917 37.3041C199.909 35.0751 204.329 33.1744 209.365 32.3087C211.878 31.9007 214.55 31.7912 217.251 32.1495C218.612 32.3186 219.933 32.6172 221.284 33.0451C221.642 33.1645 221.93 33.2341 222.347 33.4133C222.744 33.5725 223.151 33.7416 223.519 33.9208C224.264 34.269 224.979 34.6969 225.644 35.1646C228.366 37.0354 230.213 39.563 231.475 41.9811C232.746 44.4291 233.511 46.8572 234.067 49.2156C235.14 53.9423 235.388 58.4701 235.368 62.8983C235.289 71.7547 234.037 80.2529 232.319 88.6019C230.581 96.9509 228.316 105.131 225.605 113.161C222.893 121.202 219.685 129.083 215.811 136.745C213.864 140.576 211.749 144.358 209.315 148.03C206.852 151.702 204.141 155.304 200.485 158.588C198.628 160.21 196.503 161.782 193.702 162.887C192.311 163.434 190.712 163.832 188.984 163.892C188.129 163.932 187.245 163.882 186.371 163.732C185.537 163.613 184.504 163.324 183.61 162.917C181.882 162.17 180.193 160.817 179.091 159.225C177.969 157.632 177.383 155.961 177.065 154.448C176.459 151.413 176.677 148.836 177.025 146.428C177.79 141.641 179.28 137.462 180.938 133.402C182.607 129.361 184.584 125.53 186.669 121.799C190.871 114.355 195.648 107.33 200.883 100.663C206.137 94.0053 211.848 87.6864 218.324 82.0143C221.572 79.1882 225.009 76.5213 228.813 74.2326C232.617 71.9737 236.779 69.9735 241.616 69.1675C244.019 68.7893 246.622 68.7495 249.184 69.3665C250.456 69.665 251.737 70.1427 252.869 70.7198C254.002 71.287 255.104 71.9936 256.117 72.8394C258.163 74.5112 259.762 76.8198 260.676 79.218C261.6 81.6262 261.938 84.0742 261.997 86.4027C262.057 91.0698 261.143 95.3885 259.941 99.5083C258.72 103.628 257.2 107.569 255.561 111.43C252.273 119.142 248.499 126.525 244.884 133.909C243.086 137.601 241.278 141.303 239.957 145.064C239.639 146 239.351 146.945 239.172 147.87C238.994 148.786 238.914 149.731 239.093 150.378C239.182 150.697 239.311 150.886 239.5 151.045C239.609 151.115 239.729 151.184 239.888 151.234C239.967 151.254 240.007 151.274 240.116 151.284L240.454 151.304C241.348 151.403 242.341 151.324 243.275 151.184C247.108 150.587 250.654 148.308 253.704 145.651C255.233 144.308 256.673 142.835 258.014 141.283C259.365 139.73 260.636 138.108 261.789 136.397C259.762 139.999 257.299 143.373 254.369 146.358C252.899 147.851 251.3 149.224 249.532 150.398C247.754 151.562 245.797 152.528 243.642 153.025C242.559 153.254 241.477 153.413 240.315 153.373H239.878C239.729 153.373 239.52 153.324 239.351 153.284C239.013 153.204 238.656 153.075 238.318 152.876C237.633 152.468 237.146 151.771 236.908 151.105C236.451 149.761 236.56 148.587 236.679 147.472C236.818 146.358 237.057 145.303 237.335 144.268C238.467 140.138 240.037 136.287 241.576 132.426C244.725 124.754 248.072 117.231 250.813 109.559C252.184 105.728 253.416 101.877 254.31 98.0057C255.193 94.1546 255.819 90.2538 255.581 86.6515C255.462 84.8603 255.104 83.1686 254.468 81.7456C253.833 80.3226 252.929 79.1683 251.737 78.2826C251.141 77.8348 250.486 77.4468 249.751 77.1283C249.025 76.7999 248.36 76.591 247.605 76.4417C246.135 76.1531 244.536 76.2128 242.887 76.5412C239.58 77.2079 236.193 78.9096 233.014 80.9893C229.836 83.089 226.787 85.5668 223.886 88.2437C218.096 93.6172 212.851 99.7372 208.064 106.175C203.286 112.624 198.946 119.43 195.231 126.476C193.374 129.998 191.705 133.591 190.265 137.203C188.845 140.795 187.663 144.497 187.196 147.89C186.957 149.562 186.957 151.174 187.206 152.189C187.325 152.687 187.484 152.985 187.573 153.085C187.663 153.184 187.643 153.154 187.812 153.234C187.772 153.234 188.159 153.314 188.477 153.284C188.815 153.264 189.252 153.174 189.768 152.955C190.801 152.538 192.083 151.662 193.294 150.547C195.758 148.278 198.062 145.233 200.118 142.019C202.184 138.785 204.071 135.322 205.799 131.76C209.266 124.635 212.146 117.122 214.679 109.499C217.182 101.867 219.268 94.0849 220.827 86.2435C222.367 78.412 223.449 70.481 223.499 62.8087C223.509 58.9875 223.241 55.2161 222.466 51.8824C222.079 50.2306 221.552 48.6981 220.907 47.4841C220.261 46.2601 219.536 45.4043 218.831 44.9366C218.652 44.8172 218.483 44.7077 218.294 44.6281C218.195 44.5684 218.126 44.5585 218.046 44.5187C217.986 44.4888 217.768 44.4291 217.649 44.3893C217.033 44.2102 216.338 44.031 215.652 43.9614C214.262 43.7823 212.772 43.832 211.222 44.0808C208.114 44.5883 204.796 45.9019 201.608 47.6731C195.172 51.2456 189.153 56.4002 183.57 61.9629C177.978 67.5653 172.804 73.7051 167.937 80.1037C163.08 86.5122 158.541 93.1993 154.319 100.085C150.128 106.982 146.155 114.017 142.669 121.251C139.202 128.466 136.093 135.899 134.077 143.343C133.094 147.025 132.379 150.816 132.488 154C132.518 155.563 132.865 156.926 133.203 157.463C133.372 157.732 133.451 157.831 133.59 157.911C133.64 157.971 133.759 157.991 133.878 158.05L134.117 158.12C134.206 158.12 134.335 158.18 134.375 158.17C134.593 158.2 134.881 158.2 135.328 158.06C135.765 157.931 136.322 157.672 136.908 157.304C138.09 156.558 139.371 155.433 140.573 154.12C142.996 151.493 145.251 148.308 147.307 144.975C151.419 138.268 154.915 130.944 158.084 123.5C164.411 108.564 169.387 92.9406 173.568 77.1582C175.624 69.257 177.412 61.2763 178.813 53.2557C180.203 45.2351 181.216 37.1449 181.475 29.1044C181.584 25.0942 181.495 21.0839 180.918 17.2229C180.63 15.3023 180.213 13.4216 179.597 11.6801C178.982 9.94863 178.127 8.37636 177.025 7.25189C176.449 6.68468 175.903 6.29658 175.118 5.92839C174.303 5.51045 173.469 5.24177 172.615 4.99299C170.887 4.5651 169.069 4.43573 167.222 4.66461C163.527 5.0925 159.832 6.64487 156.425 8.66494C152.988 10.685 149.77 13.1728 146.721 15.8695C143.672 18.5663 140.791 21.4819 138.02 24.507C132.478 30.5573 127.392 37.0752 122.724 43.8818L122.744 43.8917Z" fill="url(#paint0_linear_63_1199)"/>
<defs>
<linearGradient id="paint0_linear_63_1199" x1="116.785" y1="84.512" x2="267.758" y2="84.512" gradientUnits="userSpaceOnUse">
<stop stop-color="#FFA700"/>
<stop offset="1" stop-color="#F7E100"/>
</linearGradient>
</defs>
</svg>
