<svg width="140" height="169" viewBox="0 0 140 169" fill="none" xmlns="http://www.w3.org/2000/svg">
<path d="M0.744008 43.4723C4.84612 36.2976 9.54418 29.4612 14.6991 22.9432C17.3014 19.6992 20.0627 16.5845 23.0225 13.629C25.9923 10.6835 29.1707 7.89722 32.7166 5.50896C34.4846 4.32478 36.3519 3.23017 38.3483 2.33457C40.3348 1.42902 42.4604 0.712545 44.7051 0.354306C46.9399 -0.0337857 49.2939 -0.0138836 51.5983 0.443866C52.7306 0.712545 53.8827 1.03098 54.9356 1.49868C56.0381 1.93653 57.2598 2.68286 58.1736 3.5287C60.0607 5.27014 61.2526 7.39966 62.1366 9.49934C63.0007 11.6189 63.5868 13.7684 64.0138 15.9078C64.8581 20.1967 65.1561 24.4658 65.2355 28.7049C65.3746 37.1932 64.5701 45.562 63.4775 53.8612C62.3452 62.1604 60.8255 70.38 59.0277 78.5299C57.2399 86.6898 55.1441 94.7701 52.7206 102.781C50.307 110.781 47.6253 118.722 44.5561 126.544C41.4671 134.365 38.0603 142.107 33.7397 149.6C31.5446 153.342 29.1807 157.044 26.0619 160.537C24.4925 162.278 22.7345 163.99 20.45 165.492C19.3078 166.239 18.0066 166.925 16.477 167.433C14.9673 167.94 13.1695 168.209 11.332 168.02C10.8553 167.98 10.4878 167.9 10.0607 167.831C9.6435 167.751 9.21641 167.632 8.79924 167.512C7.94505 167.234 7.09086 166.885 6.27639 166.378C4.61767 165.413 3.26686 163.95 2.363 162.467C1.44921 160.975 0.942657 159.472 0.595021 158.079C0.257317 156.676 0.10833 155.342 0.0388023 154.059C-0.0903198 151.501 0.118262 149.143 0.436101 146.864C0.763873 144.585 1.22077 142.396 1.75712 140.256C3.93233 131.708 7.13059 123.797 10.6765 116.075C17.8179 100.681 26.638 86.2719 36.7492 72.6986C41.8346 65.9319 47.2776 59.394 53.3166 53.2741C56.336 50.2191 59.5045 47.2637 62.9014 44.4973C66.2983 41.7309 69.9137 39.1237 73.9165 36.8847C77.9094 34.6556 82.3293 32.755 87.3651 31.8893C89.878 31.4813 92.5498 31.3718 95.2515 31.73C96.6122 31.8992 97.9332 32.1977 99.284 32.6256C99.6416 32.745 99.9297 32.8147 100.347 32.9938C100.744 33.153 101.151 33.3222 101.519 33.5013C102.264 33.8496 102.979 34.2775 103.644 34.7452C106.366 36.616 108.213 39.1436 109.475 41.5617C110.746 44.0097 111.511 46.4377 112.067 48.7961C113.14 53.5229 113.388 58.0506 113.368 62.4788C113.289 71.3353 112.037 79.8335 110.319 88.1825C108.581 96.5314 106.316 104.711 103.605 112.742C100.893 120.782 97.6849 128.663 93.8113 136.326C91.8645 140.157 89.7489 143.938 87.3154 147.61C84.8522 151.282 82.1406 154.884 78.4855 158.168C76.6281 159.79 74.5025 161.363 71.7016 162.467C70.311 163.015 68.7119 163.413 66.9837 163.472C66.1295 163.512 65.2455 163.462 64.3714 163.313C63.5371 163.194 62.5041 162.905 61.6102 162.497C59.8819 161.751 58.1934 160.397 57.0909 158.805C55.9685 157.213 55.3825 155.541 55.0647 154.029C54.4588 150.994 54.6773 148.416 55.025 146.008C55.7898 141.222 57.2796 137.042 58.9384 132.982C60.607 128.942 62.5836 125.111 64.6694 121.379C68.8708 113.936 73.6483 106.91 78.8828 100.243C84.137 93.5859 89.8482 87.267 96.3242 81.5949C99.5721 78.7688 103.009 76.1019 106.813 73.8131C110.617 71.5542 114.779 69.5541 119.616 68.748C122.019 68.3699 124.622 68.3301 127.184 68.947C128.456 69.2456 129.737 69.7232 130.869 70.3004C132.002 70.8676 133.104 71.5741 134.117 72.42C136.163 74.0918 137.762 76.4004 138.676 78.7986C139.6 81.2068 139.938 83.6547 139.997 85.9833C140.057 90.6503 139.143 94.9691 137.941 99.0888C136.72 103.209 135.2 107.149 133.561 111.01C130.273 118.722 126.499 126.106 122.884 133.49C121.086 137.182 119.278 140.883 117.957 144.645C117.639 145.58 117.351 146.526 117.172 147.451C116.994 148.367 116.914 149.312 117.093 149.959C117.182 150.277 117.311 150.466 117.5 150.625C117.609 150.695 117.729 150.765 117.888 150.815C117.967 150.834 118.007 150.854 118.116 150.864L118.454 150.884C119.348 150.984 120.341 150.904 121.275 150.765C125.108 150.168 128.654 147.889 131.704 145.232C133.233 143.889 134.673 142.416 136.014 140.863C137.365 139.311 138.636 137.689 139.789 135.977C137.762 139.58 135.299 142.953 132.369 145.938C130.899 147.431 129.3 148.804 127.532 149.979C125.754 151.143 123.797 152.108 121.642 152.606C120.559 152.835 119.477 152.994 118.315 152.954H117.878C117.729 152.954 117.52 152.904 117.351 152.864C117.013 152.785 116.656 152.655 116.318 152.456C115.633 152.048 115.146 151.352 114.908 150.685C114.451 149.342 114.56 148.168 114.679 147.053C114.818 145.938 115.057 144.884 115.335 143.849C116.467 139.719 118.037 135.868 119.576 132.007C122.725 124.335 126.072 116.812 128.813 109.139C130.184 105.308 131.416 101.457 132.31 97.5862C133.193 93.7352 133.819 89.8343 133.581 86.2321C133.462 84.4409 133.104 82.7492 132.468 81.3262C131.833 79.9032 130.929 78.7489 129.737 77.8632C129.141 77.4154 128.486 77.0273 127.751 76.7089C127.025 76.3805 126.36 76.1715 125.605 76.0223C124.135 75.7337 122.536 75.7934 120.887 76.1218C117.58 76.7885 114.193 78.4901 111.014 80.5699C107.836 82.6696 104.787 85.1474 101.886 87.8242C96.0957 93.1978 90.8514 99.3177 86.0639 105.756C81.2864 112.204 76.9459 119.011 73.2312 126.056C71.3738 129.579 69.7051 133.171 68.2649 136.783C66.8446 140.376 65.6626 144.078 65.1958 147.471C64.9574 149.143 64.9574 150.755 65.2057 151.77C65.3249 152.267 65.4838 152.566 65.5732 152.665C65.6626 152.765 65.6428 152.735 65.8116 152.815C65.7719 152.815 66.1592 152.894 66.4771 152.864C66.8148 152.845 67.2518 152.755 67.7683 152.536C68.8013 152.118 70.0826 151.242 71.2943 150.128C73.7576 147.859 76.0619 144.814 78.118 141.6C80.1839 138.366 82.0711 134.903 83.7993 131.34C87.2658 124.215 90.1462 116.702 92.679 109.08C95.1819 101.447 97.2678 93.6655 98.8271 85.8241C100.367 77.9926 101.449 70.0616 101.499 62.3893C101.509 58.5681 101.241 54.7966 100.466 51.463C100.079 49.8111 99.5522 48.2787 98.9066 47.0646C98.261 45.8407 97.5359 44.9849 96.8307 44.5172C96.6519 44.3978 96.4831 44.2883 96.2944 44.2087C96.195 44.149 96.1255 44.139 96.0461 44.0992C95.9865 44.0694 95.7679 44.0097 95.6488 43.9699C95.0329 43.7907 94.3377 43.6116 93.6523 43.542C92.2618 43.3628 90.7719 43.4126 89.2225 43.6614C86.1136 44.1689 82.7961 45.4824 79.6078 47.2537C73.1716 50.8261 67.1525 55.9808 61.5705 61.5434C55.9785 67.1459 50.8037 73.2857 45.9368 79.6842C41.0798 86.0927 36.5406 92.7799 32.3193 99.666C28.1278 106.562 24.1548 113.598 20.6685 120.832C17.2021 128.046 14.0932 135.48 12.077 142.923C11.0936 146.605 10.3785 150.397 10.4878 153.581C10.5176 155.143 10.8652 156.507 11.2029 157.044C11.3718 157.313 11.4512 157.412 11.5903 157.492C11.6399 157.551 11.7591 157.571 11.8783 157.631L12.1167 157.701C12.2061 157.701 12.3352 157.76 12.3749 157.75C12.5934 157.78 12.8815 157.78 13.3284 157.641C13.7655 157.512 14.3217 157.253 14.9077 156.885C16.0897 156.138 17.371 155.014 18.5728 153.7C20.9963 151.073 23.251 147.889 25.307 144.555C29.419 137.848 32.9153 130.524 36.0837 123.081C42.4107 108.144 47.3869 92.5211 51.5685 76.7387C53.6245 68.8376 55.4123 60.8568 56.8128 52.8363C58.2033 44.8157 59.2165 36.7255 59.4747 28.685C59.584 24.6747 59.4946 20.6644 58.9185 16.8034C58.6304 14.8829 58.2133 13.0021 57.5975 11.2607C56.9817 9.52919 56.1275 7.95692 55.025 6.83245C54.4489 6.26524 53.9026 5.87715 53.1179 5.50896C52.3035 5.09102 51.4691 4.82234 50.6149 4.57356C48.8867 4.14566 47.069 4.0163 45.2216 4.24517C41.5267 4.67307 37.8319 6.22544 34.425 8.24551C30.9884 10.2656 27.7703 12.7533 24.721 15.4501C21.6717 18.1468 18.7913 21.0625 16.0201 24.0876C10.4778 30.1379 5.3924 36.6558 0.724143 43.4623L0.744008 43.4723Z" fill="url(#paint0_linear_66_1438)"/>
<defs>
<linearGradient id="paint0_linear_66_1438" x1="-5.21547" y1="84.0926" x2="145.758" y2="84.0926" gradientUnits="userSpaceOnUse">
<stop stop-color="#FFA700"/>
<stop offset="1" stop-color="#F7E100"/>
</linearGradient>
</defs>
</svg>
