<svg width="300" height="359" viewBox="0 0 300 359" fill="none" xmlns="http://www.w3.org/2000/svg">
<path d="M2.08706 92.7163C10.8481 77.3859 20.8819 62.7784 31.8916 48.8513C37.4495 41.9197 43.3467 35.2644 49.6683 28.9494C56.011 22.6556 62.7992 16.7021 70.3723 11.599C74.1483 9.06874 78.1364 6.72984 82.4002 4.81619C86.6429 2.88128 91.1825 1.35037 95.9767 0.584907C100.75 -0.244339 105.777 -0.201814 110.699 0.776272C113.117 1.35037 115.578 2.03077 117.826 3.03012C120.181 3.96568 122.79 5.56039 124.742 7.36772C128.772 11.0887 131.318 15.6389 133.206 20.1254C135.051 24.6543 136.303 29.2471 137.215 33.8186C139.018 42.9828 139.655 52.1045 139.824 61.1624C140.121 79.2995 138.403 97.1815 136.07 114.915C133.651 132.648 130.406 150.211 126.566 167.625C122.748 185.06 118.272 202.326 113.096 219.442C107.941 236.537 102.213 253.505 95.6585 270.218C89.0612 286.93 81.785 303.473 72.5573 319.483C67.8692 327.478 62.8204 335.388 56.1595 342.851C52.8078 346.572 49.0531 350.229 44.174 353.44C41.7345 355.035 38.9556 356.502 35.6888 357.586C32.4643 358.671 28.6248 359.245 24.7003 358.841C23.6821 358.756 22.8972 358.586 21.985 358.437C21.0941 358.267 20.1819 358.011 19.291 357.756C17.4666 357.161 15.6423 356.417 13.9028 355.332C10.3602 353.27 7.47521 350.144 5.54481 346.976C3.59319 343.787 2.51132 340.576 1.76886 337.599C1.04761 334.601 0.729411 331.752 0.580919 329.009C0.305147 323.545 0.750624 318.505 1.42945 313.636C2.12948 308.767 3.10529 304.089 4.2508 299.518C8.89649 281.253 15.7271 264.349 23.3003 247.849C38.5525 214.956 57.3899 184.167 78.9849 155.165C89.8461 140.706 101.471 126.737 114.368 113.66C120.817 107.132 127.584 100.817 134.839 94.9064C142.094 88.9954 149.816 83.4245 158.365 78.6404C166.892 73.8775 176.332 69.8164 187.087 67.9665C192.454 67.0947 198.161 66.8608 203.931 67.6263C206.837 67.9878 209.658 68.6257 212.543 69.54C213.307 69.7951 213.922 69.9439 214.813 70.3267C215.661 70.6669 216.531 71.0284 217.316 71.4111C218.907 72.1553 220.434 73.0696 221.856 74.0689C227.668 78.0663 231.614 83.467 234.308 88.6339C237.023 93.8645 238.657 99.0526 239.845 104.092C242.136 114.192 242.666 123.866 242.623 133.328C242.454 152.252 239.781 170.41 236.111 188.25C232.399 206.089 227.562 223.567 221.771 240.726C215.98 257.907 209.128 274.747 200.855 291.119C196.697 299.305 192.178 307.385 186.981 315.231C181.72 323.077 175.929 330.774 168.123 337.791C164.156 341.256 159.616 344.616 153.634 346.976C150.664 348.146 147.249 348.996 143.558 349.124C141.734 349.209 139.846 349.102 137.979 348.783C136.197 348.528 133.991 347.912 132.082 347.04C128.39 345.445 124.784 342.553 122.43 339.151C120.032 335.749 118.781 332.177 118.102 328.945C116.808 322.46 117.275 316.953 118.017 311.808C119.651 301.58 122.833 292.65 126.375 283.975C129.939 275.342 134.16 267.156 138.615 259.182C147.588 243.278 157.792 228.266 168.971 214.02C180.193 199.795 192.391 186.294 206.222 174.174C213.158 168.135 220.498 162.437 228.623 157.546C236.747 152.72 245.636 148.446 255.967 146.724C261.1 145.916 266.658 145.831 272.131 147.149C274.846 147.787 277.583 148.807 280.001 150.041C282.419 151.253 284.774 152.762 286.938 154.57C291.308 158.142 294.723 163.075 296.675 168.199C298.648 173.345 299.369 178.575 299.496 183.551C299.623 193.523 297.672 202.751 295.105 211.554C292.496 220.357 289.25 228.777 285.75 237.027C278.728 253.505 270.667 269.282 262.946 285.059C259.106 292.947 255.245 300.857 252.424 308.895C251.745 310.893 251.13 312.913 250.748 314.891C250.366 316.847 250.197 318.867 250.578 320.249C250.769 320.929 251.045 321.333 251.448 321.673C251.682 321.822 251.936 321.971 252.275 322.077C252.445 322.12 252.53 322.163 252.763 322.184L253.485 322.226C255.394 322.439 257.515 322.269 259.509 321.971C267.697 320.695 275.271 315.826 281.783 310.149C285.05 307.279 288.126 304.132 290.99 300.815C293.875 297.498 296.59 294.032 299.051 290.375C294.723 298.072 289.462 305.28 283.204 311.659C280.065 314.848 276.649 317.782 272.873 320.291C269.076 322.779 264.897 324.842 260.294 325.905C257.982 326.394 255.67 326.734 253.188 326.649H252.254C251.936 326.649 251.491 326.543 251.13 326.458C250.409 326.287 249.645 326.011 248.924 325.586C247.46 324.714 246.421 323.226 245.912 321.801C244.936 318.931 245.169 316.422 245.424 314.04C245.721 311.659 246.23 309.405 246.824 307.194C249.242 298.369 252.594 290.141 255.882 281.891C262.606 265.497 269.755 249.423 275.61 233.029C278.537 224.843 281.168 216.614 283.077 208.343C284.965 200.114 286.301 191.779 285.792 184.082C285.538 180.255 284.774 176.64 283.416 173.6C282.059 170.559 280.128 168.093 277.583 166.2C276.31 165.244 274.91 164.414 273.34 163.734C271.792 163.032 270.37 162.586 268.758 162.267C265.619 161.65 262.203 161.778 258.682 162.479C251.618 163.904 244.384 167.54 237.596 171.984C230.808 176.47 224.295 181.765 218.101 187.484C205.734 198.966 194.533 212.043 184.308 225.8C174.105 239.578 164.835 254.122 156.901 269.176C152.934 276.703 149.37 284.379 146.294 292.097C143.261 299.773 140.736 307.683 139.739 314.933C139.23 318.505 139.23 321.95 139.761 324.119C140.015 325.182 140.355 325.82 140.546 326.032C140.736 326.245 140.694 326.181 141.055 326.351C140.97 326.351 141.797 326.521 142.476 326.458C143.197 326.415 144.131 326.224 145.234 325.756C147.44 324.863 150.176 322.992 152.764 320.61C158.025 315.762 162.947 309.256 167.338 302.388C171.75 295.478 175.781 288.078 179.472 280.466C186.875 265.242 193.027 249.189 198.436 232.902C203.782 216.593 208.237 199.966 211.567 183.211C214.855 166.477 217.168 149.53 217.274 133.137C217.295 124.972 216.722 116.913 215.068 109.79C214.24 106.261 213.116 102.986 211.737 100.392C210.358 97.7769 208.81 95.9483 207.304 94.9489C206.922 94.6938 206.561 94.4599 206.158 94.2898C205.946 94.1622 205.797 94.1409 205.628 94.0559C205.5 93.9921 205.034 93.8645 204.779 93.7795C203.464 93.3967 201.979 93.014 200.515 92.8652C197.545 92.4824 194.363 92.5888 191.054 93.1203C184.414 94.2047 177.329 97.0114 170.52 100.796C156.774 108.429 143.918 119.444 131.997 131.329C120.054 143.3 109.002 156.419 98.6071 170.091C88.2338 183.785 78.5394 198.073 69.5238 212.787C60.5718 227.522 52.0866 242.555 44.6407 258.013C37.2373 273.428 30.5976 289.312 26.2913 305.216C24.1912 313.083 22.6639 321.184 22.8972 327.988C22.9608 331.327 23.7033 334.24 24.4246 335.388C24.7852 335.962 24.9549 336.175 25.2519 336.345C25.3579 336.472 25.6125 336.515 25.867 336.642L26.3762 336.791C26.5671 336.791 26.8429 336.919 26.9277 336.898C27.3944 336.961 28.0096 336.961 28.9642 336.664C29.8976 336.387 31.0855 335.834 32.3371 335.048C34.8614 333.453 37.5979 331.05 40.1647 328.244C45.3408 322.63 50.1562 315.826 54.5473 308.703C63.3295 294.372 70.7966 278.723 77.5636 262.818C91.0764 230.903 101.704 197.52 110.635 163.798C115.026 146.915 118.844 129.862 121.836 112.725C124.805 95.5868 126.969 78.3002 127.521 61.1199C127.754 52.551 127.563 43.9821 126.333 35.7322C125.718 31.6285 124.827 27.6098 123.511 23.8889C122.196 20.1891 120.372 16.8296 118.017 14.4269C116.787 13.215 115.62 12.3857 113.944 11.599C112.205 10.706 110.423 10.1319 108.599 9.60031C104.907 8.68601 101.025 8.40959 97.0798 8.89864C89.1884 9.81293 81.2971 13.1299 74.021 17.4463C66.6812 21.7626 59.8082 27.0783 53.2957 32.8405C46.7833 38.6027 40.6314 44.8327 34.713 51.2965C22.876 64.2243 12.0148 78.1514 2.04463 92.6951L2.08706 92.7163Z" fill="url(#paint0_linear_29_58)"/>
<defs>
<linearGradient id="paint0_linear_29_58" x1="-10.6409" y1="179.511" x2="311.8" y2="179.511" gradientUnits="userSpaceOnUse">
<stop stop-color="#FFA700"/>
<stop offset="1" stop-color="#F7E100"/>
</linearGradient>
</defs>
</svg>
